<?xml version="1.0" encoding="utf-8"?>
<!-- Generator: Adobe Illustrator 16.0.0, SVG Export Plug-In . SVG Version: 6.00 Build 0)  -->
<!DOCTYPE svg PUBLIC "-//W3C//DTD SVG 1.1//EN" "http://www.w3.org/Graphics/SVG/1.1/DTD/svg11.dtd">
<svg version="1.1" id="Layer_1" xmlns="http://www.w3.org/2000/svg" xmlns:xlink="http://www.w3.org/1999/xlink" x="0px" y="0px"
	 width="430px" height="105px" viewBox="0 0 430 105" enable-background="new 0 0 430 105" xml:space="preserve">
<g>
	<g>
		<path fill="#FFFFFF" d="M32.328,8.807c3.631,1.194,6.571,3.383,8.82,6.566c1.805,2.576,3.034,5.361,3.69,8.357
			c0.655,2.997,0.983,5.853,0.983,8.568c0,6.882-1.382,12.711-4.146,17.487c-3.748,6.438-9.535,9.656-17.36,9.656H2V7.682h22.315
			C27.526,7.731,30.196,8.105,32.328,8.807z M12.499,16.673v33.779h9.988c5.111,0,8.675-2.517,10.691-7.549
			c1.102-2.763,1.653-6.051,1.653-9.867c0-5.267-0.827-9.311-2.479-12.132c-1.653-2.821-4.941-4.231-9.865-4.231H12.499z"/>
		<path fill="#FFFFFF" d="M60.609,7.684h12.237l18.312,51.759H79.429l-3.415-10.642H56.953l-3.509,10.642H42.132L60.609,7.684z
			 M59.896,39.884h13.256l-6.538-20.367L59.896,39.884z"/>
		<path fill="#FFFFFF" d="M95.801,59.442V7.683h10.745v19.734h20.12V7.683h10.745v51.759h-10.745V36.337h-20.12v23.105H95.801z"/>
		<path fill="#FFFFFF" d="M143.432,7.684h10.815v42.453h25.844v9.307h-36.659V7.684z"/>
		<path fill="#FFFFFF" d="M196.155,59.442H185.41V7.683h10.745V59.442z"/>
		<path fill="#FFFFFF" d="M220.507,7.684h12.237l18.312,51.759h-11.729l-3.415-10.642h-19.062l-3.509,10.642H202.03L220.507,7.684z
			 M219.794,39.884h13.256l-6.538-20.367L219.794,39.884z"/>
		<path fill="#FFFFFF" d="M306.661,60.161l-12.802-43.076l-12.873,43.076L264.519,8.096h2.876l13.448,41.997l13.017-42.932
			l12.944,42.932l13.447-41.997h3.021L306.661,60.161z"/>
		<path fill="#FFFFFF" d="M369.081,52.754c-4.938,4.938-11.29,7.407-19.058,7.407c-7.767,0-14.096-2.445-18.984-7.336
			c-4.938-4.938-7.407-11.29-7.407-19.057s2.445-14.095,7.335-18.985c4.938-4.938,11.291-7.407,19.058-7.407
			c7.719,0,14.07,2.445,19.058,7.335c4.938,4.938,7.407,11.291,7.407,19.057S374.019,47.864,369.081,52.754z M366.996,16.869
			c-4.412-4.411-10.068-6.616-16.973-6.616c-6.809,0-12.418,2.206-16.828,6.616c-4.41,4.411-6.615,10.044-6.615,16.899
			c0,6.856,2.182,12.466,6.544,16.828c4.411,4.411,10.044,6.615,16.899,6.615c6.903,0,12.561-2.156,16.973-6.472
			c4.36-4.362,6.544-10.021,6.544-16.972C373.54,26.865,371.357,21.232,366.996,16.869z"/>
		<path fill="#FFFFFF" d="M381.738,59.442V8.095h2.876v48.397h14.454v2.949L381.738,59.442L381.738,59.442z"/>
		<path fill="#FFFFFF" d="M408.776,32.69v26.752H405.9V8.095h22.293v2.948h-19.417v18.698h19.417v2.948L408.776,32.69L408.776,32.69
			z"/>
	</g>
	<line fill="none" stroke="#FFFFFF" stroke-miterlimit="10" x1="245.317" y1="0.911" x2="269.42" y2="69.433"/>
	<g>
		<g>
			<path fill="#FFFFFF" d="M141.384,81.83c-0.194,0.363-0.551,0.623-1.07,0.778c-0.521,0.153-1.05,0.173-1.589,0.058l-0.269-0.058
				c-0.011-0.027-0.006-0.083,0.015-0.168c0.02-0.085,0.024-0.174,0.011-0.267c-0.013-0.092-0.059-0.182-0.133-0.274
				c-0.076-0.093-0.214-0.159-0.416-0.203c-0.313-0.068-0.653-0.109-1.018-0.126c-0.368-0.015-0.738,0-1.112,0.048
				c-0.159,0.017-0.395,0.036-0.706,0.057c-0.312,0.022-0.665,0.055-1.063,0.097c-0.397,0.041-0.826,0.094-1.287,0.159
				c-0.461,0.066-0.927,0.163-1.397,0.292c-0.352,0.458-0.802,1.024-1.346,1.696c-0.547,0.672-1.197,1.463-1.951,2.37
				c-0.362,0.561-0.746,1.025-1.154,1.397c-0.165,0.296-0.245,0.553-0.239,0.771c0.005,0.217,0.087,0.343,0.246,0.376
				c0.113,0.025,0.858-0.019,2.238-0.132c0.138-0.022,0.355-0.052,0.656-0.09c0.299-0.038,0.642-0.075,1.027-0.106
				c0.383-0.032,0.802-0.045,1.254-0.038c0.45,0.009,0.88,0.056,1.289,0.143c0.272,0.057,0.459,0.153,0.563,0.29
				c0.103,0.137,0.062,0.377-0.124,0.719c-0.038,0.068-0.218,0.145-0.542,0.227c-0.325,0.085-0.712,0.168-1.162,0.248
				c-0.439,0.061-0.757,0.107-0.953,0.144c-0.197,0.033-0.433,0.06-0.709,0.077c-0.276,0.019-0.67,0.043-1.182,0.073
				c-0.512,0.031-1.314,0.07-2.408,0.118c-0.125-0.002-0.27-0.005-0.429-0.015c-0.161-0.009-0.356,0.013-0.59,0.065
				c-0.232,0.053-0.501,0.146-0.806,0.286c-0.307,0.141-0.67,0.356-1.087,0.648c-0.766,0.908-1.463,1.772-2.092,2.597
				c-0.631,0.822-1.216,1.54-1.755,2.153c-0.54,0.612-1.033,1.084-1.476,1.409c-0.444,0.328-0.874,0.449-1.288,0.362
				c-0.115-0.024-0.199-0.057-0.255-0.094c-0.023-0.005-0.093-0.062-0.208-0.177c-0.115-0.114-0.231-0.246-0.349-0.398
				c-0.118-0.152-0.216-0.309-0.294-0.464c-0.077-0.156-0.09-0.28-0.037-0.372c0.261-0.454,0.507-0.851,0.736-1.185
				c0.23-0.333,0.531-0.738,0.902-1.206c0.37-0.472,0.868-1.086,1.494-1.849c0.624-0.761,1.452-1.783,2.484-3.069
				c0.009-0.151,0.046-0.283,0.11-0.398c0.077-0.137,0.173-0.249,0.287-0.34c0.114-0.091,0.22-0.176,0.317-0.259
				c-0.064,0.113,0.014,0.042,0.236-0.217c0.222-0.259,0.521-0.622,0.898-1.091c0.376-0.469,0.795-0.99,1.257-1.566
				c0.461-0.578,0.921-1.142,1.379-1.694c0.459-0.552,0.881-1.04,1.269-1.466c0.387-0.428,0.686-0.72,0.899-0.878
				c0.05-0.091,0.089-0.173,0.116-0.242c0.027-0.071,0.064-0.15,0.116-0.244c0.329-0.591,0.667-1.034,1.016-1.327
				c0.349-0.296,0.733-0.396,1.155-0.305c0.401,0.086,0.685,0.167,0.855,0.243c0.17,0.073,0.294,0.146,0.368,0.213
				c0.075,0.067,0.137,0.125,0.185,0.174c0.047,0.05,0.139,0.087,0.273,0.116c0.377,0.081,0.975,0.116,1.792,0.102
				c0.815-0.013,1.649-0.035,2.501-0.066c0.851-0.032,1.623-0.068,2.317-0.109c0.694-0.04,1.107-0.046,1.242-0.018
				c0.156,0.034,0.313,0.125,0.471,0.273c0.157,0.148,0.292,0.314,0.404,0.505c0.111,0.189,0.183,0.396,0.214,0.62
				C141.513,81.445,141.48,81.646,141.384,81.83z"/>
			<path fill="#FFFFFF" d="M141.45,89.934c-0.008,0.027-0.059,0.098-0.15,0.207c-0.092,0.108-0.146,0.191-0.163,0.246
				c-0.036,0.068-0.074,0.158-0.115,0.269c-0.041,0.109-0.098,0.241-0.173,0.391c-0.113,0.083-0.244,0.228-0.395,0.434
				c-0.151,0.205-0.312,0.442-0.481,0.711c-0.169,0.268-0.349,0.553-0.537,0.854c-0.188,0.302-0.38,0.584-0.578,0.845
				c-0.24,0.303-0.55,0.857-0.931,1.668l-0.814,1.709c-0.035,0.068-0.077,0.179-0.123,0.329c-0.021,0.069-0.044,0.146-0.069,0.228
				s-0.038,0.171-0.038,0.268c-0.03-0.097-0.135-0.262-0.315-0.494c-0.17-0.219-0.257-0.419-0.261-0.597
				c-0.004-0.18,0.047-0.439,0.152-0.783c0.093-0.302,0.186-0.553,0.276-0.751c0.092-0.199,0.176-0.354,0.254-0.464
				c-0.034-0.082-0.088-0.123-0.161-0.123c-0.06,0-0.134,0.027-0.225,0.082c-0.091,0.055-0.225,0.146-0.404,0.269
				c-0.179,0.124-0.412,0.281-0.701,0.474c-0.29,0.192-0.657,0.433-1.102,0.721c-0.079,0.109-0.169,0.209-0.271,0.299
				c-0.103,0.091-0.247,0.187-0.435,0.288c-0.188,0.104-0.424,0.218-0.707,0.341c-0.283,0.123-0.646,0.274-1.087,0.452
				c-0.398,0.316-0.752,0.475-1.064,0.475c-0.015,0-0.054-0.019-0.118-0.052c-0.063-0.033-0.131-0.087-0.207-0.154
				c-0.076-0.068-0.141-0.151-0.2-0.247s-0.088-0.213-0.088-0.351c0.001-0.192-0.023-0.356-0.076-0.493
				c-0.053-0.139-0.103-0.27-0.152-0.393c-0.05-0.124-0.082-0.255-0.097-0.392c-0.015-0.137,0.007-0.302,0.069-0.494
				c0.074-0.232,0.266-0.597,0.571-1.091c0.18-0.056,0.433-0.199,0.758-0.434c0.07-0.124,0.132-0.229,0.19-0.318
				c0.058-0.09,0.153-0.202,0.286-0.34c0.132-0.138,0.322-0.329,0.569-0.576c0.248-0.248,0.599-0.599,1.05-1.051
				c0.159-0.082,0.281-0.168,0.368-0.259c0.086-0.088,0.184-0.188,0.292-0.298c0.108-0.108,0.234-0.229,0.377-0.359
				c0.145-0.132,0.354-0.284,0.629-0.465c0.856-0.768,1.593-1.383,2.211-1.843c0.617-0.459,1.115-0.688,1.494-0.688
				c0.232,0,0.479,0.172,0.738,0.515c0.131,0,0.222,0.014,0.271,0.042c0.05,0.027,0.107,0.068,0.171,0.122
				c0.062,0.056,0.149,0.117,0.26,0.186c0.11,0.069,0.294,0.139,0.551,0.206c0.165,0.082,0.298,0.162,0.398,0.238
				c0.101,0.075,0.187,0.166,0.256,0.276C141.479,89.673,141.492,89.797,141.45,89.934z M138.398,90.654
				c0.051-0.165,0.002-0.247-0.144-0.247c-0.118,0-0.386,0.138-0.809,0.413c-0.152,0.066-0.322,0.166-0.51,0.297
				c-0.187,0.131-0.425,0.306-0.714,0.525c-0.289,0.221-0.634,0.49-1.036,0.812c-0.402,0.322-0.899,0.725-1.492,1.205
				c-0.062,0.055-0.205,0.191-0.429,0.411c-0.225,0.221-0.46,0.453-0.708,0.7c-0.248,0.246-0.475,0.483-0.681,0.711
				c-0.204,0.227-0.32,0.381-0.346,0.463c-0.035,0.109-0.001,0.165,0.103,0.165c0.089,0,0.206-0.044,0.353-0.135
				c0.147-0.09,0.324-0.205,0.533-0.351c0.208-0.144,0.438-0.302,0.693-0.474c0.253-0.172,0.526-0.348,0.817-0.524
				c0.067-0.069,0.137-0.13,0.213-0.186c0.077-0.056,0.186-0.135,0.329-0.237c0.143-0.104,0.332-0.236,0.568-0.401
				c0.235-0.165,0.542-0.384,0.923-0.659c0.017-0.055,0.089-0.153,0.213-0.298c0.126-0.145,0.274-0.299,0.442-0.464
				c0.169-0.165,0.342-0.322,0.521-0.474c0.178-0.15,0.323-0.261,0.433-0.329C138.126,90.964,138.368,90.654,138.398,90.654z
				 M138.87,90.263c-0.015,0-0.051,0.012-0.108,0.031c-0.057,0.021-0.094,0.031-0.108,0.031c0.03,0.041,0.066,0.067,0.105,0.082
				C138.778,90.394,138.815,90.346,138.87,90.263z"/>
			<path fill="#FFFFFF" d="M149.387,89.502c-0.173,0.095-0.422,0.235-0.748,0.421c-0.324,0.188-0.657,0.401-1,0.65
				c-0.344,0.247-0.664,0.526-0.961,0.843c-0.298,0.316-0.5,0.653-0.604,1.009c-0.012,0.041-0.066,0.599-0.158,1.668l-0.154,1.668
				c-0.036,0.124-0.244,0.453-0.624,0.989c-0.207,0.302-0.375,0.521-0.504,0.658c-0.128,0.138-0.23,0.229-0.304,0.277
				c-0.074,0.05-0.126,0.064-0.159,0.053c-0.034-0.015-0.072-0.021-0.117-0.021c-0.297,0-0.618-0.008-0.962-0.021
				c-0.345-0.016-0.737-0.083-1.174-0.206c-0.052-0.124-0.141-0.225-0.267-0.299c-0.126-0.075-0.262-0.165-0.409-0.269
				c-0.146-0.104-0.282-0.244-0.407-0.422c-0.123-0.18-0.191-0.446-0.202-0.804c-0.005-0.179-0.14-0.269-0.407-0.269
				c-0.059,0-0.21,0.072-0.453,0.217c-0.244,0.145-0.517,0.305-0.823,0.483c-0.306,0.178-0.613,0.351-0.923,0.515
				c-0.309,0.165-0.558,0.262-0.744,0.288c0.127-0.22,0.354-0.527,0.684-0.927c0.131-0.137,0.373-0.298,0.725-0.482
				c0.353-0.187,0.718-0.367,1.097-0.547c0.379-0.178,0.723-0.328,1.033-0.452c0.31-0.123,0.49-0.192,0.538-0.206
				c0.68-0.398,1.338-0.788,1.975-1.175c0.637-0.384,1.165-0.81,1.581-1.275c0.041-0.137,0.095-0.31,0.164-0.515
				c0.068-0.206,0.154-0.46,0.258-0.763c0.049-0.164,0.469-0.769,1.258-1.812c0.451-0.592,0.742-1.085,0.874-1.483
				c0.158-0.095,0.359-0.22,0.6-0.37c0.241-0.15,0.522-0.33,0.843-0.535c-0.011-0.014,0.051,0.037,0.185,0.153
				c0.133,0.117,0.29,0.251,0.473,0.401c0.181,0.151,0.376,0.293,0.587,0.422c0.21,0.131,0.38,0.197,0.511,0.197h0.131l-0.078,0.27
				C150.552,88.424,150.108,88.979,149.387,89.502z M144.686,94.67c0.105-0.356,0.094-0.995-0.032-1.915l-3.624,2.143
				c0.166,0.138,0.329,0.205,0.493,0.205c0.059,0,0.153-0.021,0.284-0.062c0.13-0.041,0.225-0.062,0.284-0.062
				c0.045,0,0.104,0.049,0.179,0.146c0.075,0.097,0.142,0.144,0.201,0.144c0.03,0,0.066-0.01,0.109-0.029
				c0.043-0.021,0.087-0.031,0.132-0.031c0.043,0,0.134,0.021,0.27,0.062c0.135,0.041,0.281,0.086,0.437,0.135
				c0.156,0.049,0.305,0.093,0.448,0.134c0.143,0.042,0.244,0.062,0.303,0.062c0.045,0,0.095-0.011,0.153-0.03
				c0.058-0.021,0.094-0.031,0.109-0.031L144.686,94.67z"/>
			<path fill="#FFFFFF" d="M160.137,95.246c-0.048,0.069-0.098,0.162-0.151,0.278c-0.054,0.116-0.138,0.235-0.251,0.359
				c-0.115,0.123-0.272,0.24-0.471,0.351c-0.2,0.108-0.468,0.186-0.804,0.227c-0.131,0.042-0.243,0.075-0.339,0.104
				c-0.096,0.026-0.186,0.055-0.267,0.082c-0.082,0.026-0.146,0.049-0.194,0.062c-0.399,0-0.731-0.076-0.994-0.227
				c-0.262-0.151-0.465-0.332-0.606-0.546c-0.142-0.214-0.232-0.423-0.271-0.629c-0.041-0.205-0.047-0.355-0.021-0.451
				c0.019-0.068,0.069-0.146,0.151-0.228c0.045-0.22,0.083-0.433,0.108-0.639c0.02-0.179,0.046-0.367,0.078-0.566
				c0.033-0.198,0.057-0.381,0.073-0.546l0.011-0.041c0.003-0.014-0.023-0.021-0.083-0.021c-0.088,0-0.163,0.03-0.225,0.093
				c-0.061,0.062-0.114,0.134-0.158,0.216c-0.044,0.083-0.081,0.159-0.107,0.227c-0.026,0.069-0.051,0.117-0.073,0.146
				c-0.021-0.027-0.044-0.052-0.068-0.072c-0.024-0.02-0.06-0.052-0.108-0.093c-0.092,0.069-0.21,0.192-0.355,0.371
				c-0.145,0.178-0.3,0.378-0.464,0.597c-0.164,0.221-0.332,0.443-0.506,0.67c-0.173,0.227-0.327,0.422-0.462,0.587
				c-0.149,0.22-0.266,0.389-0.351,0.505c-0.085,0.115-0.174,0.226-0.27,0.329c-0.095,0.104-0.215,0.229-0.361,0.382
				c-0.146,0.149-0.352,0.384-0.618,0.699h-0.29c-0.045,0-0.126-0.056-0.243-0.165s-0.236-0.236-0.36-0.381
				c-0.123-0.145-0.227-0.285-0.313-0.422c-0.087-0.138-0.13-0.233-0.13-0.289l0.128-0.453c-0.021-0.026-0.044-0.051-0.068-0.07
				c-0.024-0.021-0.063-0.038-0.119-0.053c-0.034-0.191-0.043-0.483-0.028-0.875c0.015-0.392,0.068-0.745,0.157-1.061l0.076-0.269
				c-0.011-0.014-0.053-0.021-0.126-0.021l-0.952,0.475c-0.026-0.014-0.048-0.026-0.065-0.042c-0.019-0.013-0.046-0.032-0.082-0.062
				c-0.063,0.014-0.112,0.055-0.146,0.124c-0.034,0.067-0.167,0.199-0.399,0.391c-0.012-0.013-0.054-0.021-0.127-0.021
				c-0.147,0-0.328,0.062-0.541,0.186c-0.212,0.123-0.54,0.337-0.981,0.64c-0.062-0.043-0.112-0.087-0.149-0.135
				c-0.037-0.049-0.083-0.105-0.138-0.176c0.071-0.192,0.196-0.37,0.377-0.535c0.18-0.165,0.421-0.35,0.723-0.556
				c0.303-0.206,0.663-0.443,1.078-0.711c0.415-0.269,0.89-0.593,1.426-0.979c0.208-0.108,0.41-0.229,0.609-0.359
				c0.198-0.131,0.529-0.396,0.995-0.793c0.008-0.027,0.01-0.062,0.007-0.104c-0.003-0.04-0.001-0.075,0.006-0.103
				c0.043-0.15,0.105-0.281,0.188-0.393c0.083-0.108,0.201-0.261,0.358-0.453c-0.014-0.055-0.009-0.171,0.011-0.349l0.846-1.525
				c0.19-0.313,0.376-0.597,0.555-0.844c0.178-0.247,0.356-0.479,0.534-0.699c0.018-0.014,0.037-0.056,0.057-0.125
				c0.022-0.08,0.042-0.188,0.057-0.318c0.015-0.129,0.025-0.208,0.033-0.235c0.035-0.125,0.231-0.356,0.589-0.701
				c0.051-0.081,0.096-0.152,0.136-0.215c0.039-0.062,0.099-0.136,0.18-0.217c0.081-0.082,0.181-0.179,0.298-0.288
				c0.118-0.11,0.278-0.247,0.484-0.413c0-0.055,0.025-0.171,0.075-0.349c0.071-0.151,0.28-0.434,0.625-0.846
				c0.344-0.411,0.822-0.962,1.428-1.646c0.24-0.138,0.484-0.291,0.732-0.463s0.605-0.348,1.071-0.525
				c0.087,0,0.141,0.062,0.166,0.186h0.215l0.412-0.246l0.257,0.165c0.279-0.289,0.462-0.434,0.548-0.434
				c0.014,0,0.064,0.027,0.15,0.082c0.086,0.056,0.177,0.113,0.276,0.175c0.098,0.062,0.232,0.148,0.405,0.258
				c0.057,0,0.088-0.008,0.092-0.021c0.004-0.014,0.027-0.021,0.071-0.021c0.113,0,0.208,0.055,0.278,0.164
				c0.072,0.108,0.124,0.251,0.157,0.423c0.033,0.172,0.048,0.356,0.046,0.556s-0.027,0.387-0.076,0.566
				c-0.311,0.355-0.686,0.774-1.125,1.255c-0.44,0.481-0.949,1.044-1.528,1.688c-0.081,0.028-0.167,0.065-0.259,0.113
				c-0.092,0.048-0.207,0.106-0.341,0.176c-0.025,0.041-0.046,0.078-0.062,0.113c-0.017,0.033-0.045,0.071-0.086,0.113
				c-0.04,0.041-0.104,0.081-0.196,0.122c-0.091,0.042-0.226,0.097-0.404,0.166c-0.011,0.04,0.016,0.085,0.083,0.134
				c0.067,0.047,0.1,0.078,0.096,0.092c-0.048,0.014-0.093,0.021-0.137,0.021c-0.059,0-0.093-0.009-0.103-0.021
				c-0.22,0.111-0.355,0.261-0.408,0.454c-0.022,0.081-0.031,0.143-0.028,0.184c-0.117,0-0.287,0.063-0.509,0.187
				c-0.223,0.125-0.352,0.247-0.386,0.372c-0.008,0.026-0.005,0.047,0.006,0.061c0.01,0.016,0.019,0.035,0.026,0.062h-0.48
				c-0.037,0.083-0.071,0.151-0.1,0.206c-0.03,0.056-0.078,0.122-0.141,0.194c-0.065,0.076-0.153,0.174-0.266,0.289
				c-0.112,0.117-0.274,0.271-0.488,0.463c-0.074,0.11-0.282,0.335-0.623,0.67c-0.34,0.337-0.713,0.704-1.116,1.103
				c-0.404,0.398-0.782,0.796-1.135,1.194c-0.354,0.397-0.588,0.722-0.701,0.968l-1.092,2.471c-0.008,0.028-0.024,0.072-0.048,0.134
				c-0.025,0.062-0.053,0.148-0.083,0.259c-0.016,0.055-0.048,0.144-0.098,0.268c-0.05,0.123-0.081,0.25-0.096,0.381
				c-0.015,0.131-0.003,0.244,0.038,0.34c0.039,0.097,0.133,0.146,0.281,0.146c0.163,0,0.307-0.093,0.433-0.278
				c0.125-0.186,0.285-0.438,0.479-0.762c0.193-0.322,0.438-0.696,0.734-1.123c0.295-0.425,0.694-0.878,1.194-1.358
				c0.24-0.124,0.417-0.258,0.53-0.401c0.113-0.145,0.249-0.314,0.407-0.516c0.157-0.197,0.364-0.429,0.619-0.688
				c0.255-0.261,0.629-0.569,1.122-0.927c0.1-0.15,0.267-0.291,0.499-0.423c0.232-0.13,0.422-0.194,0.569-0.194
				c0.029,0,0.104,0.02,0.225,0.062c0.12,0.041,0.246,0.089,0.378,0.145c0.131,0.056,0.256,0.105,0.374,0.154
				c0.119,0.049,0.182,0.086,0.189,0.112c-0.251,0.549-0.507,1.078-0.769,1.586s-0.504,0.971-0.729,1.391
				c-0.224,0.42-0.414,0.779-0.569,1.081c-0.156,0.303-0.25,0.516-0.284,0.639c-0.067,0.247-0.066,0.433,0.004,0.557
				c0.07,0.123,0.246,0.186,0.526,0.186c0.163,0,0.362-0.027,0.598-0.082c0.063-0.068,0.156-0.154,0.28-0.259
				c0.124-0.103,0.264-0.209,0.418-0.317c0.155-0.11,0.31-0.22,0.464-0.33s0.295-0.206,0.419-0.288
				c0.004,0.151,0.003,0.309-0.005,0.474C160.15,94.876,160.144,95.054,160.137,95.246z M160.815,82.295
				c-0.256,0.041-0.531,0.151-0.825,0.328c-0.103,0.111-0.297,0.282-0.585,0.516c-0.288,0.232-0.593,0.478-0.916,0.731
				c-0.323,0.254-0.625,0.5-0.91,0.741c-0.284,0.238-0.479,0.422-0.586,0.545c0.017,0.041,0.021,0.082,0.009,0.124
				c-0.004,0.014-0.215,0.33-0.633,0.945c-0.42,0.618-1.043,1.579-1.874,2.885c0.325-0.274,0.883-0.772,1.675-1.494
				c0.788-0.719,1.695-1.677,2.72-2.871c0.232-0.11,0.451-0.285,0.653-0.525c0.203-0.24,0.39-0.485,0.56-0.74
				c0.17-0.255,0.319-0.495,0.445-0.722C160.675,82.531,160.764,82.376,160.815,82.295z"/>
			<path fill="#FFFFFF" d="M164.541,91.602c-0.054,0.206-0.117,0.379-0.189,0.516c-0.072,0.138-0.17,0.274-0.294,0.412
				c-0.124,0.137-0.273,0.288-0.449,0.453c-0.176,0.164-0.387,0.385-0.636,0.657c-0.178,0.345-0.309,0.602-0.391,0.772
				c-0.083,0.172-0.194,0.363-0.339,0.577c-0.144,0.213-0.359,0.497-0.646,0.854c-0.287,0.357-0.723,0.894-1.312,1.606
				c-0.164,0-0.301-0.069-0.412-0.206c-0.111-0.139-0.201-0.307-0.266-0.505c-0.065-0.199-0.107-0.419-0.124-0.659
				c-0.019-0.239-0.013-0.463,0.012-0.669c0.004-0.069-0.01-0.116-0.038-0.146c-0.03-0.026-0.061-0.063-0.092-0.112
				c-0.031-0.047-0.052-0.108-0.061-0.186c-0.009-0.075,0.006-0.188,0.046-0.34c0.033-0.124,0.082-0.22,0.144-0.289
				c0.063-0.067,0.134-0.141,0.212-0.216c0.08-0.075,0.166-0.165,0.26-0.268c0.094-0.104,0.19-0.259,0.29-0.465
				c0.131-0.219,0.236-0.391,0.313-0.515c0.077-0.123,0.171-0.244,0.284-0.36c0.111-0.115,0.25-0.238,0.418-0.369
				c0.166-0.132,0.415-0.319,0.744-0.566c0.147-0.109,0.253-0.261,0.318-0.453c0.527-0.274,0.856-0.411,0.988-0.411
				c0.029,0,0.131,0.044,0.307,0.133c0.174,0.091,0.495,0.278,0.962,0.566L164.541,91.602z M168.439,86.762
				c-0.011,0.042-0.083,0.14-0.215,0.289c-0.134,0.152-0.214,0.254-0.243,0.311c-0.622,0.438-1.029,0.657-1.218,0.657
				c-0.103,0-0.191-0.077-0.267-0.235c-0.076-0.158-0.137-0.348-0.182-0.566c-0.045-0.219-0.071-0.438-0.08-0.659
				c-0.008-0.22,0.005-0.396,0.042-0.535c0.025-0.097,0.071-0.223,0.141-0.381c0.07-0.156,0.146-0.309,0.226-0.453
				c0.081-0.144,0.168-0.271,0.263-0.382c0.093-0.108,0.175-0.164,0.249-0.164c0.072,0,0.172,0.062,0.299,0.187
				c0.128,0.123,0.258,0.267,0.389,0.433c0.131,0.165,0.244,0.322,0.336,0.474c0.092,0.151,0.138,0.256,0.139,0.31
				c-0.003,0.068,0.02,0.188,0.071,0.36C168.44,86.573,168.456,86.694,168.439,86.762z"/>
			<path fill="#FFFFFF" d="M175.924,91.313c-0.161,0.672-0.474,1.304-0.939,1.895c-0.184,0.398-0.405,0.751-0.664,1.061
				s-0.595,0.601-1.008,0.875c-0.414,0.273-0.926,0.56-1.539,0.854c-0.613,0.295-1.366,0.634-2.261,1.02
				c-0.033,0.014-0.247,0.041-0.643,0.082c-0.528,0.453-1.179,0.681-1.949,0.681c-0.372,0-0.6-0.035-0.687-0.104l-0.66-0.64h-0.066
				c-0.223,0-0.378-0.072-0.466-0.217c-0.09-0.144-0.138-0.302-0.146-0.474c-0.008-0.172-0.003-0.336,0.016-0.494
				c0.019-0.156,0.019-0.257-0.001-0.298c0.102-0.109,0.161-0.191,0.175-0.248c0.01-0.041,0-0.088-0.029-0.144
				c-0.031-0.055-0.042-0.096-0.035-0.124c0.032-0.123,0.102-0.312,0.212-0.566c0.109-0.253,0.18-0.441,0.211-0.564
				c0.062-0.015,0.18-0.056,0.352-0.124s0.276-0.171,0.311-0.31c0.011-0.041,0.015-0.131,0.014-0.268
				c-0.002-0.138,0-0.22,0.008-0.247c0.175-0.109,0.315-0.213,0.421-0.31c0.104-0.097,0.218-0.206,0.337-0.329
				c0.12-0.124,0.257-0.274,0.413-0.453c0.155-0.178,0.365-0.412,0.629-0.7c0.08-0.082,0.235-0.22,0.468-0.412
				c0.231-0.19,0.497-0.404,0.798-0.638c0.301-0.234,0.617-0.479,0.952-0.73c0.333-0.254,0.647-0.484,0.939-0.689
				c0.292-0.206,0.545-0.374,0.76-0.505c0.214-0.131,0.344-0.194,0.388-0.194s0.104,0.009,0.178,0.029
				c0.075,0.021,0.135,0.03,0.179,0.03c0.117,0,0.361-0.19,0.732-0.576c0.025,0.015,0.071,0.049,0.138,0.104
				c0.066,0.056,0.146,0.131,0.239,0.227l0.621,0.145c0.155,0.084,0.393,0.187,0.713,0.31c0.364,0,0.629,0.095,0.797,0.277
				c0.166,0.186,0.27,0.427,0.309,0.721c0.039,0.297,0.033,0.625-0.018,0.99C176.071,90.617,176.006,90.97,175.924,91.313z
				 M173.58,90.82c-0.07-0.016-0.139-0.063-0.207-0.146c0.061-0.068,0.101-0.146,0.121-0.228c0.03-0.124,0.024-0.265-0.018-0.422
				c-0.042-0.158-0.122-0.236-0.239-0.236c-0.205,0-0.738,0.295-1.601,0.886c-0.528,0.356-0.987,0.687-1.378,0.987
				c-0.391,0.303-0.741,0.587-1.051,0.854c-0.31,0.268-0.591,0.522-0.842,0.763c-0.252,0.239-0.511,0.479-0.776,0.711
				c-0.018,0.015-0.068,0.082-0.152,0.206c-0.082,0.123-0.172,0.257-0.267,0.4c-0.096,0.146-0.179,0.281-0.249,0.412
				c-0.07,0.131-0.11,0.216-0.121,0.257c-0.028,0.11,0.008,0.23,0.108,0.36c0.1,0.131,0.209,0.196,0.327,0.196
				c0.813,0,1.817-0.322,3.013-0.969c0.249-0.055,0.558-0.164,0.922-0.329c0.073-0.056,0.188-0.179,0.346-0.37
				c0.157-0.191,0.365-0.446,0.618-0.764c0.039-0.041,0.097-0.14,0.172-0.298c0.076-0.158,0.161-0.327,0.257-0.505
				c0.095-0.178,0.19-0.343,0.286-0.494c0.095-0.15,0.168-0.24,0.22-0.268c0.114-0.467,0.265-0.729,0.455-0.783L173.58,90.82z"/>
			<path fill="#FFFFFF" d="M182.585,95.534l0.03,0.453l0.24,1.111l0.086,0.206l-0.187,0.041l-0.183,0.124l-0.102-0.145l-0.217-0.021
				l-0.019,0.082l-0.071,0.021l-0.483-0.124l-0.604-0.864l-0.151-1.38l0.067-0.104l0.017-0.268l0.245-1.071l-0.096-0.062
				l0.267-0.393l0.015-0.164l0.081-0.062l0.136-0.597l0.27-0.7l0.197-0.577l-0.054-0.247l-0.16-0.164l-0.364-0.041l-0.507,0.104
				l-0.42,0.68l-0.233,0.247l-0.33,0.576l-0.18,0.206l-0.196,0.371l-0.489,0.68l-0.762,1.091l-0.06,0.165l-0.328,0.453l-0.034,0.144
				l-0.15,0.165l-0.384,0.599l-0.294,0.309l-0.214,0.062l-0.024,0.104l-0.213-0.041h-0.421l-0.125-0.227l-0.192-0.124l-0.171-0.31
				l-0.145-0.041l0.02-0.269l0.159-0.205l0.372-0.824l0.635-1.092l0.74-1.358l0.604-1.257l1.276-2.078l0.412-0.166l0.493,0.041
				l0.278-0.061l0.252,0.328l-0.186,0.804l0.992-0.597l0.537-0.145l0.893-0.166l1.067,0.412l0.212,0.228l0.237,0.41l-0.055,0.64
				l-0.197,0.68l-0.357,0.617l-0.639,1.174l-0.237,0.557l-0.197,0.288l0.026,0.082l-0.053,0.434l-0.163,0.33L182.585,95.534z"/>
			<path fill="#FFFFFF" d="M218.64,81.15c0.146,0.05,0.29,0.142,0.426,0.274c0.138,0.133,0.282,0.344,0.437,0.635
				c0.072,0.112,0.112,0.202,0.122,0.271c0.007,0.068-0.001,0.158-0.025,0.27s-0.067,0.26-0.131,0.444
				c-0.063,0.188-0.14,0.448-0.228,0.788l-0.518,1.001c-0.125,0.197-0.298,0.459-0.521,0.786c-0.225,0.328-0.446,0.704-0.668,1.131
				l-0.114,0.093c-0.268,0.347-0.595,0.784-0.983,1.318c-0.388,0.534-0.848,1.159-1.377,1.875c-0.336,0.39-0.599,0.765-0.791,1.126
				c-0.19,0.361-0.478,0.696-0.859,1.004l-0.134,0.251c-0.039,0.031-0.069,0.069-0.095,0.115c-0.023,0.046-0.061,0.094-0.109,0.144
				l-0.162,0.307c-0.086,0.038-0.186,0.183-0.3,0.438c-0.115,0.256-0.374,0.603-0.782,1.032c0.01,0.024-0.01,0.084-0.061,0.178
				l-0.087,0.102c0.059-0.068,0.05-0.055-0.021,0.042c-0.074,0.095-0.178,0.226-0.308,0.389c-0.132,0.163-0.28,0.355-0.439,0.574
				c-0.163,0.22-0.299,0.432-0.407,0.635c-0.041,0.073-0.062,0.154-0.062,0.24c-0.029,0.012-0.05,0.027-0.06,0.047
				c-0.008,0.019-0.033,0.042-0.073,0.074c-0.079,0.146-0.129,0.263-0.149,0.343c-0.04,0.074-0.085,0.136-0.134,0.186l-0.133,0.186
				c-0.16,0.297-0.351,0.506-0.572,0.63c-0.223,0.123-0.344,0.181-0.361,0.176l-0.045,0.02c-0.039,0.029-0.095,0.071-0.167,0.124
				c-0.074,0.053-0.163,0.113-0.271,0.188l-0.115,0.028l0.1,0.063l-0.177,0.14l-0.148,0.214l-0.291,0.166l-0.283,0.397l-0.188,0.036
				l0.042,0.046h-0.102l-0.102,0.064c-0.02,0.037-0.042,0.079-0.068,0.126c-0.024,0.046-0.057,0.083-0.096,0.115l-0.131,0.056
				l-0.12,0.157c-0.028,0.012-0.053,0.015-0.072,0.01c-0.019-0.007-0.054-0.006-0.101,0c0.041-0.075,0.066-0.145,0.078-0.205
				l0.015-0.027c0-0.044,0.014-0.1,0.04-0.167c0.025-0.066,0.045-0.152,0.057-0.26l0.092-0.23c0.021-0.037,0.056-0.111,0.106-0.228
				c0.052-0.114,0.118-0.268,0.199-0.458l0.046-0.084c0.029-0.056,0.05-0.114,0.062-0.176l0.15-0.278l-0.011-0.103
				c0.028-0.013,0.073-0.073,0.133-0.187l0.619-1.203l3.912-7.244c0.109-0.203,0.186-0.368,0.23-0.495
				c0.044-0.127,0.088-0.271,0.131-0.433c0.175-0.333,0.395-0.685,0.655-1.055l0.089-0.167c0.135-0.173,0.238-0.317,0.312-0.435
				c0.073-0.118,0.135-0.225,0.183-0.316l0.087-0.102c-0.047,0.006-0.1,0.021-0.156,0.046c-0.056,0.023-0.123,0.047-0.196,0.064
				c-0.131-0.044-0.521,0.076-1.173,0.359l-0.96,0.692c-0.036,0.031-0.064,0.061-0.079,0.088c-0.015,0.027-0.042,0.059-0.079,0.09
				l-0.415,0.285c-0.22,0.166-0.394,0.306-0.519,0.417c-0.125,0.11-0.25,0.199-0.372,0.269l-0.199,0.062
				c-0.088,0.081-0.182,0.187-0.284,0.315c-0.102,0.13-0.254,0.237-0.453,0.324l-0.045,0.082l-0.505,0.39
				c-0.078,0.062-0.161,0.126-0.253,0.193c-0.092,0.067-0.215,0.164-0.369,0.287l-0.159,0.109c-0.174,0.117-0.31,0.208-0.411,0.272
				c-0.101,0.064-0.2,0.126-0.296,0.181c-0.095,0.057-0.163,0.077-0.2,0.064c-0.22,0.124-0.405,0.221-0.553,0.291
				c-0.15,0.069-0.284,0.136-0.403,0.193c-0.12,0.06-0.189,0.084-0.208,0.078c-0.057,0.024-0.111,0.04-0.158,0.047
				c-0.048,0.006-0.095,0.013-0.142,0.019c-0.267-0.197-0.483-0.479-0.648-0.841c-0.166-0.361-0.313-0.585-0.441-0.673
				c-0.336-0.311-0.538-0.725-0.607-1.239c-0.069-0.518,0.054-1.183,0.367-1.997l0.545-1.001c0.068-0.087,0.134-0.187,0.194-0.296
				c0.06-0.111,0.121-0.225,0.181-0.333c-0.027,0.011-0.057,0.033-0.086,0.067c-0.03,0.034-0.073,0.063-0.129,0.088l-0.216,0.156
				l-0.246,0.213c-0.038-0.012-0.135,0.087-0.292,0.297c-0.158,0.21-0.499,0.513-1.02,0.907c-0.056-0.019-0.178,0.055-0.368,0.223
				c-0.189,0.165-0.508,0.46-0.958,0.879c-0.137,0.13-0.299,0.283-0.485,0.464c-0.158,0.166-0.357,0.379-0.599,0.638
				c-0.243,0.26-0.528,0.586-0.856,0.981l-0.729,0.777c-0.049,0.05-0.105,0.13-0.166,0.24c-0.13,0.153-0.197,0.235-0.203,0.246
				c-0.005,0.009-0.005,0.009,0,0c0.006-0.011-0.002-0.008-0.021,0.008s-0.094,0.101-0.224,0.255s-0.337,0.404-0.618,0.75
				c-0.281,0.347-0.685,0.851-1.209,1.51c-0.089,0.08-0.149,0.147-0.18,0.204c-0.031,0.056-0.083,0.126-0.152,0.212
				c-0.071,0.087-0.203,0.202-0.395,0.348c-0.192,0.146-0.509,0.354-0.95,0.624l-0.025-0.074c-0.029,0.013-0.051,0.033-0.067,0.061
				c-0.016,0.028-0.042,0.035-0.081,0.023c-0.037-0.013-0.059-0.032-0.067-0.056l-0.121-0.141c-0.027-0.029-0.049-0.062-0.067-0.088
				c-0.017-0.028-0.04-0.058-0.066-0.088l0.043-0.019l-0.081-0.094l0.048-0.084c0.085-0.347,0.173-0.657,0.263-0.937
				c0.09-0.277,0.209-0.547,0.355-0.807c0.021-0.035,0.062-0.1,0.123-0.188c0.062-0.09,0.149-0.216,0.261-0.375
				c0.26-0.266,0.413-0.43,0.458-0.491c0.046-0.062,0.093-0.135,0.139-0.217c0.047-0.084,0.131-0.227,0.257-0.428
				c0.122-0.2,0.391-0.562,0.803-1.082c0.413-0.522,1.013-1.255,1.801-2.199c0.786-0.944,1.865-2.207,3.234-3.786
				c0.29-0.253,0.638-0.603,1.044-1.046c0.404-0.445,0.905-0.917,1.502-1.417l0.045-0.083c0.067-0.044,0.145-0.087,0.234-0.134
				c0.09-0.047,0.168-0.091,0.236-0.136l0.169-0.072c0.048-0.05,0.1-0.104,0.153-0.162c0.053-0.06,0.104-0.113,0.152-0.163
				c0.229-0.184,0.433-0.323,0.613-0.414c0.18-0.093,0.388-0.159,0.625-0.199c0.236-0.039,0.483-0.016,0.738,0.071
				c0.091,0.03,0.255,0.131,0.489,0.297c0.045,0.037,0.104,0.069,0.177,0.094c0.073,0.025,0.143,0.087,0.208,0.187
				c0.065,0.099,0.138,0.249,0.213,0.451c0.076,0.2,0.146,0.486,0.207,0.855c-0.005,0.13-0.009,0.239-0.011,0.325
				c-0.003,0.088-0.02,0.196-0.047,0.33c-0.027,0.133-0.083,0.314-0.165,0.551c-0.082,0.234-0.223,0.561-0.423,0.973l-0.747,1.392
				c-0.099,0.142-0.176,0.264-0.23,0.365c-0.055,0.102-0.107,0.198-0.156,0.29l-0.887,1.642c-0.07,0.13-0.243,0.509-0.52,1.139
				c0.194-0.152,0.401-0.313,0.623-0.479c0.183-0.138,0.402-0.276,0.655-0.421c0.253-0.146,0.537-0.284,0.852-0.421l0.993-0.748
				l0.171-0.074l0.503-0.39c0.143-0.104,0.289-0.214,0.438-0.327c0.149-0.114,0.323-0.247,0.522-0.397
				c0.201-0.151,0.447-0.337,0.737-0.555c0.291-0.22,0.659-0.483,1.105-0.791l0.769-0.527c0.104-0.074,0.244-0.174,0.418-0.3
				c0.176-0.126,0.381-0.271,0.618-0.43c0.114-0.094,0.379-0.249,0.799-0.469c0.417-0.219,0.89-0.521,1.418-0.91
				c0.057-0.067,0.121-0.116,0.189-0.147c0.069-0.031,0.161-0.071,0.272-0.119c0.112-0.05,0.263-0.119,0.449-0.208
				c0.186-0.089,0.426-0.227,0.716-0.411l0.224-0.056C218.191,81.075,218.4,81.07,218.64,81.15z"/>
			<path fill="#FFFFFF" d="M225.105,89.934c-0.005,0.027-0.042,0.098-0.116,0.207c-0.076,0.108-0.117,0.191-0.125,0.246
				c-0.025,0.068-0.051,0.158-0.074,0.269c-0.022,0.109-0.062,0.241-0.112,0.391c-0.102,0.083-0.211,0.228-0.329,0.434
				c-0.12,0.205-0.243,0.442-0.373,0.711c-0.127,0.268-0.263,0.553-0.402,0.854c-0.143,0.302-0.291,0.584-0.448,0.845
				c-0.193,0.302-0.419,0.857-0.676,1.668l-0.552,1.709c-0.023,0.068-0.049,0.179-0.071,0.329c-0.012,0.069-0.022,0.146-0.034,0.227
				c-0.013,0.083-0.012,0.172,0.005,0.269c-0.046-0.097-0.177-0.262-0.392-0.494c-0.204-0.219-0.322-0.419-0.354-0.597
				c-0.033-0.18-0.021-0.439,0.031-0.783c0.047-0.302,0.102-0.553,0.162-0.751c0.059-0.198,0.121-0.354,0.183-0.464
				c-0.047-0.082-0.106-0.123-0.18-0.123c-0.061,0-0.131,0.027-0.212,0.082c-0.084,0.055-0.204,0.146-0.365,0.269
				c-0.159,0.124-0.368,0.281-0.627,0.474c-0.261,0.192-0.591,0.433-0.991,0.721c-0.062,0.109-0.136,0.209-0.225,0.299
				s-0.22,0.187-0.391,0.288c-0.172,0.104-0.392,0.218-0.654,0.341c-0.267,0.124-0.605,0.274-1.021,0.452
				c-0.349,0.316-0.679,0.475-0.99,0.475c-0.015,0-0.057-0.019-0.125-0.052c-0.07-0.033-0.146-0.086-0.231-0.154
				s-0.163-0.151-0.237-0.248c-0.073-0.095-0.12-0.212-0.142-0.349c-0.026-0.193-0.078-0.357-0.151-0.494
				c-0.073-0.139-0.146-0.27-0.213-0.393c-0.067-0.124-0.12-0.255-0.157-0.392c-0.036-0.137-0.038-0.302-0.006-0.494
				c0.039-0.232,0.174-0.597,0.404-1.091c0.17-0.055,0.402-0.199,0.69-0.434c0.05-0.124,0.098-0.229,0.142-0.318
				c0.044-0.09,0.122-0.202,0.233-0.34c0.11-0.138,0.271-0.329,0.48-0.576c0.21-0.248,0.505-0.599,0.89-1.051
				c0.146-0.082,0.253-0.168,0.328-0.259c0.072-0.088,0.154-0.188,0.245-0.298c0.092-0.108,0.199-0.229,0.322-0.359
				c0.124-0.132,0.311-0.284,0.56-0.464c0.737-0.769,1.38-1.384,1.927-1.844c0.547-0.459,1.01-0.688,1.39-0.688
				c0.231,0,0.506,0.172,0.815,0.515c0.133,0,0.226,0.014,0.278,0.042c0.053,0.027,0.117,0.068,0.188,0.122
				c0.071,0.056,0.169,0.117,0.289,0.187c0.121,0.068,0.315,0.138,0.582,0.206c0.179,0.081,0.323,0.161,0.437,0.237
				c0.112,0.075,0.211,0.166,0.297,0.276C225.093,89.675,225.126,89.797,225.105,89.934z M222.164,90.654
				c0.024-0.165-0.035-0.247-0.183-0.247c-0.118,0-0.364,0.138-0.745,0.413c-0.144,0.066-0.299,0.166-0.465,0.297
				s-0.378,0.306-0.633,0.525c-0.255,0.221-0.56,0.49-0.911,0.812c-0.354,0.322-0.789,0.725-1.308,1.205
				c-0.054,0.055-0.176,0.191-0.365,0.411c-0.189,0.221-0.391,0.453-0.602,0.7c-0.209,0.246-0.399,0.483-0.569,0.711
				c-0.171,0.227-0.262,0.381-0.275,0.463c-0.018,0.109,0.023,0.165,0.128,0.165c0.09,0,0.2-0.044,0.333-0.135
				c0.134-0.09,0.292-0.205,0.479-0.351c0.185-0.144,0.394-0.302,0.619-0.474c0.227-0.172,0.473-0.348,0.738-0.524
				c0.055-0.069,0.115-0.13,0.185-0.186c0.068-0.056,0.165-0.135,0.293-0.237c0.125-0.104,0.294-0.236,0.505-0.401
				s0.484-0.384,0.821-0.659c0.009-0.055,0.064-0.153,0.17-0.298c0.104-0.145,0.227-0.299,0.371-0.464
				c0.143-0.165,0.292-0.322,0.448-0.474c0.154-0.15,0.281-0.261,0.381-0.329C221.94,90.964,222.134,90.654,222.164,90.654z
				 M222.575,90.263c-0.016,0-0.05,0.012-0.104,0.031c-0.055,0.021-0.089,0.03-0.103,0.03c0.036,0.042,0.075,0.068,0.117,0.083
				C222.504,90.394,222.533,90.346,222.575,90.263z"/>
			<path fill="#FFFFFF" d="M238.177,86.259c-0.041,0.157-0.116,0.354-0.225,0.586c-0.111,0.233-0.272,0.533-0.487,0.896
				c-0.212,0.364-0.521,0.854-0.921,1.474c-0.439,0.699-0.788,1.231-1.04,1.595c-0.253,0.364-0.468,0.652-0.643,0.865
				s-0.337,0.405-0.482,0.576c-0.148,0.172-0.339,0.422-0.574,0.752c-0.106,0.37-0.241,0.707-0.396,1.009
				c-0.16,0.303-0.241,0.475-0.246,0.516c-0.095,0.699,0.229,1.051,0.969,1.051c0.058,0,0.141-0.007,0.245-0.021
				c0.104-0.014,0.188-0.021,0.246-0.021c0.164,0,0.276,0.027,0.345,0.083c0.132,0,0.265-0.048,0.396-0.146
				c-0.018,0.139-0.013,0.322,0.017,0.558c-0.055-0.027-0.104-0.056-0.146-0.083c-0.005,0.041-0.033,0.097-0.087,0.165
				c-0.389,0.137-0.688,0.231-0.893,0.288c-0.207,0.055-0.367,0.089-0.479,0.104c-0.114,0.013-0.208,0.013-0.279,0
				c-0.073-0.015-0.176-0.021-0.308-0.021c-0.179,0-0.317-0.033-0.421-0.104c-0.1-0.068-0.192-0.186-0.273-0.35
				c-0.081-0.165-0.171-0.389-0.267-0.67c-0.093-0.281-0.222-0.643-0.385-1.081c-0.012-0.015-0.048-0.021-0.108-0.021
				c-0.072,0-0.151,0.035-0.234,0.104c-0.526,0.398-1.104,0.834-1.729,1.309c-0.629,0.473-1.349,0.901-2.157,1.286
				c-0.046,0.014-0.077,0.018-0.09,0.01c-0.014-0.006-0.043-0.003-0.08,0.013c-0.04,0.013-0.092,0.047-0.159,0.103
				c-0.066,0.055-0.171,0.151-0.309,0.288h-0.109c-0.047,0-0.139,0-0.28,0s-0.29-0.019-0.446-0.052
				c-0.159-0.034-0.309-0.098-0.452-0.186c-0.141-0.09-0.237-0.217-0.289-0.381c-0.06-0.096-0.148-0.24-0.269-0.433
				s-0.162-0.405-0.128-0.64c0.086-0.575,0.316-1.002,0.699-1.275c0.093-0.344,0.314-0.722,0.66-1.134
				c0.349-0.411,0.687-0.781,1.014-1.111c0.048-0.027,0.09-0.044,0.128-0.05c0.037-0.01,0.089-0.032,0.153-0.072
				c0.064-0.043,0.142-0.117,0.23-0.229c0.089-0.11,0.209-0.273,0.357-0.493c0.151-0.056,0.271-0.117,0.354-0.187
				s0.176-0.154,0.28-0.258c0.102-0.104,0.232-0.232,0.396-0.391c0.161-0.158,0.391-0.354,0.688-0.587
				c0.266-0.125,0.605-0.371,1.023-0.742c-0.059,0-0.088-0.006-0.086-0.021c0.004-0.025,0.071-0.058,0.2-0.091
				c0.128-0.035,0.27-0.069,0.419-0.104c0.15-0.033,0.362-0.077,0.632-0.134c0.176,0,0.454,0.049,0.834,0.146
				c0.089,0.097,0.2,0.169,0.334,0.216c0.133,0.049,0.401,0.12,0.814,0.216c0.152-0.272,0.262-0.46,0.323-0.555
				c0.065-0.098,0.14-0.216,0.225-0.36c0.084-0.145,0.211-0.363,0.383-0.66c0.169-0.294,0.438-0.778,0.803-1.45
				c0.04-0.097,0.09-0.224,0.146-0.381c0.056-0.157,0.124-0.312,0.202-0.464c0.076-0.15,0.163-0.282,0.258-0.392
				c0.093-0.109,0.191-0.165,0.292-0.165c0.043,0,0.128,0.026,0.252,0.083c0.122,0.055,0.205,0.082,0.248,0.082
				c0.06,0,0.104-0.014,0.138-0.041c0.067,0.149,0.205,0.292,0.414,0.423c0.207,0.131,0.37,0.194,0.486,0.194h0.021
				C238.269,85.911,238.22,86.101,238.177,86.259z M233.377,90.284c-0.138-0.068-0.215-0.104-0.229-0.104
				c-0.103,0-0.227,0.04-0.366,0.122l-0.287,0.165c-0.324,0.124-1.121,0.653-2.396,1.586c-0.186,0.151-0.313,0.277-0.396,0.381
				c-0.08,0.104-0.199,0.195-0.357,0.279c-0.532,0.438-1,0.857-1.404,1.255c-0.401,0.398-0.738,0.752-1.005,1.062
				c-0.266,0.309-0.471,0.565-0.611,0.771c-0.14,0.205-0.214,0.335-0.222,0.392c-0.006,0.041,0.005,0.083,0.037,0.124
				c0.03,0.04,0.046,0.066,0.044,0.082h0.132c0.299-0.11,0.522-0.187,0.678-0.228c0.154-0.041,0.28-0.079,0.382-0.113
				s0.195-0.071,0.283-0.112s0.21-0.113,0.362-0.216c0.156-0.104,0.367-0.244,0.637-0.424c0.271-0.178,0.639-0.418,1.11-0.721
				c0.084-0.082,0.188-0.185,0.309-0.309l0.359-0.206c0.057-0.082,0.142-0.171,0.258-0.269c0.108-0.041,0.204-0.093,0.287-0.153
				c0.081-0.062,0.167-0.138,0.263-0.228c0.094-0.09,0.208-0.202,0.346-0.34c0.137-0.137,0.305-0.294,0.506-0.474
				c0.094-0.04,0.177-0.094,0.251-0.154c0.077-0.062,0.148-0.147,0.224-0.258c0.073-0.109,0.148-0.254,0.225-0.433
				c0.074-0.179,0.155-0.411,0.237-0.699c0.021-0.056,0.08-0.172,0.18-0.351c0.098-0.179,0.146-0.273,0.148-0.288L233.377,90.284z"
				/>
			<path fill="#FFFFFF" d="M245.421,89.975c-0.047,0.412-0.174,0.771-0.383,1.07c-0.21,0.302-0.46,0.557-0.748,0.763
				c-0.286,0.206-0.601,0.371-0.938,0.494c-0.339,0.123-0.65,0.219-0.938,0.288s-0.539,0.113-0.754,0.134
				c-0.218,0.021-0.355,0.031-0.412,0.031c-1.104,0-1.81-0.124-2.117-0.371c-0.664,0.853-1.025,1.504-1.082,1.956
				c-0.014,0.11,0.066,0.303,0.239,0.577c0.088,0.123,0.161,0.224,0.218,0.299c0.058,0.076,0.12,0.129,0.189,0.164
				c0.069,0.034,0.163,0.06,0.278,0.072c0.117,0.015,0.271,0.034,0.459,0.062c0.057,0.028,0.148,0.086,0.277,0.177
				c0.13,0.089,0.356,0.134,0.683,0.134c0.503,0,1.221-0.193,2.151-0.577c0.264-0.11,0.515-0.227,0.75-0.35
				c0.236-0.124,0.445-0.24,0.627-0.352c0.182-0.109,0.336-0.202,0.463-0.277c0.125-0.074,0.203-0.112,0.232-0.112
				c0.045,0,0.096,0.013,0.15,0.041c-0.053,0.206-0.146,0.438-0.277,0.7c-0.032,0.026-0.178,0.163-0.435,0.41
				c-0.257,0.248-0.598,0.513-1.021,0.793c-0.427,0.281-0.925,0.539-1.5,0.772c-0.574,0.231-1.19,0.351-1.843,0.351
				c-0.238,0-0.484-0.068-0.742-0.206c-0.257-0.139-0.507-0.31-0.746-0.515c-0.243-0.206-0.462-0.426-0.662-0.659
				c-0.201-0.232-0.37-0.438-0.51-0.618c-0.15-0.219-0.271-0.463-0.36-0.729c-0.093-0.27-0.154-0.536-0.187-0.804
				c-0.032-0.269-0.051-0.516-0.05-0.741c-0.001-0.228,0.01-0.408,0.026-0.546c0.089-0.138,0.225-0.438,0.401-0.905
				c0.007-0.055,0.026-0.094,0.059-0.114c0.032-0.02,0.072-0.051,0.122-0.092s0.109-0.105,0.179-0.196
				c0.07-0.088,0.142-0.229,0.207-0.421c0.109-0.056,0.184-0.114,0.221-0.175c0.036-0.062,0.078-0.131,0.124-0.207
				c0.047-0.075,0.108-0.162,0.188-0.257c0.077-0.097,0.213-0.213,0.405-0.352l0.433-0.31c0.135-0.137,0.302-0.298,0.5-0.482
				c0.197-0.186,0.437-0.396,0.711-0.629l0.721-0.351c0.244-0.096,0.403-0.253,0.475-0.474h0.175c0.043,0,0.113,0.05,0.212,0.145
				c0.097,0.097,0.175,0.152,0.23,0.166c0.486,0.067,0.855,0.122,1.106,0.163c0.25,0.041,0.382,0.062,0.396,0.062
				c0.243,0.056,0.487,0.154,0.741,0.299c0.255,0.145,0.484,0.31,0.688,0.493c0.206,0.187,0.372,0.387,0.502,0.599
				C245.388,89.58,245.442,89.783,245.421,89.975z M242.647,89.666c-0.154-0.164-0.276-0.247-0.363-0.247l-0.681,0.371
				c-0.297,0.15-0.55,0.308-0.761,0.473c-0.21,0.166-0.4,0.333-0.576,0.505c-0.175,0.173-0.344,0.357-0.507,0.557
				s-0.347,0.4-0.549,0.606c0.282,0.083,0.432,0.124,0.448,0.124c0.146,0,0.534-0.172,1.161-0.515
				c0.394-0.22,0.699-0.418,0.92-0.598c0.218-0.179,0.385-0.344,0.499-0.494c0.111-0.15,0.193-0.288,0.244-0.411
				C242.535,89.913,242.591,89.79,242.647,89.666z"/>
			<path fill="#FFFFFF" d="M262.039,91.271c-0.013,0.151-0.036,0.252-0.069,0.301c-0.031,0.048-0.154,0.099-0.366,0.152
				c0.07,0.069,0.1,0.151,0.091,0.247c0.001-0.013-0.018-0.041-0.058-0.082l-0.019,0.228c-0.005,0.055-0.029,0.082-0.073,0.082
				c-0.03-0.014-0.072-0.021-0.132-0.021l0.071-0.062l-0.022,0.021c-0.018,0.016-0.039,0.028-0.07,0.042l-0.255,0.164
				c0.089-0.025,0.192-0.041,0.312-0.041c-0.093,0.027-0.161,0.101-0.218,0.216c-0.055,0.116-0.096,0.176-0.124,0.176
				c-0.016,0-0.025-0.007-0.031-0.021c-0.007-0.013-0.018-0.021-0.031-0.021l-0.002,0.021c-0.001,0.015-0.006,0.024-0.014,0.031
				c-0.009,0.007-0.014,0.018-0.015,0.031h0.177c-0.001,0.014-0.009,0.021-0.024,0.021c0.06,0.013,0.087,0.055,0.081,0.123
				c-0.002,0.028-0.021,0.056-0.054,0.083c0.001-0.014-0.019-0.042-0.058-0.083l-0.176,0.247l-0.058-0.103l0.095-0.082l-0.158,0.041
				c-0.002,0.026,0.009,0.062,0.036,0.103c0.024,0.041,0.038,0.075,0.036,0.104c-0.001,0.013-0.02,0.033-0.051,0.062
				c0.015,0,0.021,0.014,0.021,0.041c-0.005,0.055-0.058,0.123-0.15,0.206c-0.097,0.082-0.146,0.151-0.149,0.206
				c-0.016,0-0.082,0.051-0.201,0.154c-0.119,0.103-0.271,0.235-0.453,0.4c-0.184,0.165-0.391,0.347-0.623,0.546
				c-0.23,0.199-0.465,0.401-0.706,0.607c-0.37,0.191-0.747,0.433-1.128,0.721c0.013,0.041,0.01,0.137-0.003,0.288
				c-0.062,0.028-0.206,0.109-0.434,0.247c-0.228,0.137-0.546,0.33-0.953,0.577c-0.122,0.055-0.302,0.146-0.535,0.276
				c-0.235,0.132-0.51,0.218-0.826,0.259c-0.031,0.025-0.099,0.067-0.199,0.123c-0.102,0.055-0.191,0.083-0.264,0.083
				c-0.046,0-0.101-0.003-0.168-0.012c-0.064-0.007-0.151-0.018-0.252-0.029l-0.507-0.062c-0.094-0.109-0.17-0.199-0.229-0.268
				c-0.062-0.068-0.125-0.135-0.192-0.195c-0.067-0.062-0.134-0.093-0.191-0.093c-0.059-0.165-0.152-0.343-0.28-0.535
				c0.06,0,0.159,0.034,0.301,0.102c0.143,0.069,0.249,0.104,0.322,0.104c0.076,0,0.157-0.032,0.242-0.093
				c0.088-0.062,0.177-0.094,0.267-0.094c0.71,0,1.478-0.274,2.299-0.823c0.188-0.123,0.47-0.326,0.843-0.607
				c0.371-0.281,0.77-0.655,1.194-1.122c0.223-0.178,0.479-0.388,0.763-0.628c0.287-0.24,0.562-0.497,0.83-0.771
				c0.267-0.273,0.507-0.562,0.725-0.865c0.215-0.301,0.365-0.598,0.448-0.884c0.107-0.098,0.166-0.151,0.167-0.166
				c0.003-0.027-0.008-0.082-0.029-0.165l-0.073-0.186c-0.026-0.026-0.068-0.042-0.129-0.042l0.053-0.082
				c0.032-0.055,0.052-0.09,0.053-0.103l0.004-0.042c-0.018,0-0.027,0.011-0.037,0.032c-0.009,0.02-0.021,0.029-0.034,0.029
				c0.014,0,0.013-0.011-0.009-0.029c-0.021-0.021-0.044-0.032-0.074-0.032c-0.043,0-0.081,0.008-0.113,0.021l0.105,0.062
				c-0.015,0-0.021,0.007-0.021,0.021c-0.004,0.04,0,0.068,0.015,0.081c-0.028,0-0.081,0.011-0.156,0.031
				c-0.075,0.02-0.136,0.032-0.179,0.032s-0.116-0.022-0.214-0.063c-0.101-0.041-0.171-0.062-0.216-0.062
				c-0.264,0-0.539,0.034-0.831,0.103c-0.292,0.069-0.65,0.181-1.073,0.33c-0.498,0.315-0.88,0.528-1.146,0.638
				c-0.269,0.11-0.489,0.218-0.667,0.319c-0.18,0.104-0.349,0.261-0.507,0.474c-0.159,0.215-0.375,0.581-0.646,1.103l0.02,0.042
				c-0.003,0.027-0.009,0.051-0.018,0.071c-0.012,0.021-0.023,0.052-0.041,0.093c-0.399,0.48-0.774,0.898-1.127,1.257
				c-0.354,0.358-0.677,0.754-0.971,1.194c0.014,0.025,0.014,0.103,0.001,0.227c-0.169,0.206-0.312,0.31-0.429,0.31
				c-0.164,0-0.452-0.165-0.862-0.494c0.036-0.068,0.062-0.104,0.076-0.104c-0.178-0.137-0.262-0.268-0.249-0.391l0.057-0.558
				c0.011-0.108,0.09-0.268,0.235-0.474c0.146-0.205,0.298-0.414,0.461-0.628c0.16-0.212,0.312-0.411,0.456-0.597
				c0.144-0.187,0.221-0.312,0.228-0.382c0.048-0.493,0.098-0.788,0.15-0.886l0.146-0.124c0.03-0.164,0.197-0.444,0.5-0.844
				c0.219-0.288,0.429-0.683,0.631-1.185c0.202-0.5,0.384-1.006,0.551-1.514c0.164-0.508,0.308-0.972,0.426-1.39
				c0.12-0.419,0.209-0.689,0.265-0.814c0.002-0.025,0.039-0.066,0.108-0.122c0.07-0.056,0.108-0.115,0.115-0.187
				c0.005-0.055-0.014-0.104-0.052-0.146c0.017-0.04,0.066-0.118,0.142-0.234c0.076-0.116,0.117-0.21,0.124-0.278
				c0.005-0.055-0.012-0.109-0.05-0.166c0.017-0.025,0.091-0.102,0.217-0.226c0.128-0.123,0.195-0.221,0.201-0.288
				c0.003-0.027-0.008-0.068-0.031-0.123c0.216-0.139,0.436-0.348,0.654-0.628c0.222-0.282,0.492-0.686,0.816-1.206l0.028-0.328
				c0.026-0.124,0.088-0.307,0.189-0.546c0.102-0.241,0.247-0.539,0.438-0.896l-0.482,4.901c-0.003,0.027-0.033,0.068-0.088,0.123
				c-0.058,0.056-0.085,0.103-0.089,0.144l-0.02,0.206c-0.015,0.166-0.056,0.398-0.118,0.701c-0.063,0.302-0.137,0.624-0.219,0.968
				c-0.083,0.343-0.172,0.681-0.268,1.009c-0.097,0.33-0.184,0.592-0.26,0.782c-0.016,0.041-0.073,0.142-0.169,0.3
				c-0.095,0.157-0.144,0.257-0.146,0.299c-0.011,0.108,0.047,0.205,0.171,0.289c1.29-1.003,2.443-1.504,3.467-1.504
				c0.308,0,0.541,0.017,0.697,0.051c0.158,0.035,0.294,0.109,0.41,0.227c0.111,0.117,0.22,0.288,0.317,0.516
				c0.099,0.227,0.228,0.524,0.389,0.896l0.005,0.207c0.025,0.027,0.059,0.045,0.094,0.051
				C262.041,91.021,262.053,91.108,262.039,91.271z M260.172,90.201c-0.027-0.015-0.064-0.021-0.107-0.021
				c-0.073,0-0.112,0.04-0.121,0.122C259.973,90.304,260.049,90.271,260.172,90.201z M261.537,92.528
				c-0.026,0-0.073,0.007-0.131,0.021c-0.062,0.015-0.105,0.021-0.135,0.021c0.01-0.098,0.076-0.146,0.211-0.146
				C261.522,92.466,261.54,92.501,261.537,92.528z"/>
			<path fill="#FFFFFF" d="M271.156,89.749c-0.065,0.095-0.1,0.178-0.104,0.247c-0.021,0.068-0.058,0.295-0.111,0.68
				c-0.055,0.383-0.205,0.994-0.45,1.832c-0.094,0.288-0.238,0.718-0.438,1.287c-0.2,0.57-0.56,1.3-1.078,2.192
				c-0.039,0.149-0.103,0.318-0.189,0.505c-0.085,0.185-0.223,0.456-0.411,0.812c-0.002,0.027,0.001,0.052,0.007,0.072
				c0.005,0.021,0.008,0.044,0.006,0.072c-0.015,0.205-0.075,0.4-0.184,0.585c-0.111,0.187-0.293,0.491-0.546,0.918
				c-0.018,0.055-0.027,0.1-0.03,0.134c-0.002,0.034-0.019,0.075-0.042,0.122c-0.025,0.049-0.067,0.11-0.125,0.186
				c-0.06,0.076-0.145,0.184-0.257,0.319c0.012,0.028,0.015,0.104,0.006,0.229c-0.067,0.108-0.157,0.271-0.27,0.482
				c-0.112,0.213-0.247,0.478-0.403,0.792l-0.048,0.043c-0.016,0-0.034-0.035-0.061-0.104c-0.025-0.069-0.046-0.104-0.059-0.104
				c-0.075,0-0.178,0.055-0.306,0.163c-0.062,0.056-0.118,0.11-0.168,0.166c0.037,0.109,0.054,0.185,0.051,0.226
				c-0.003,0.043-0.043,0.079-0.119,0.114c-0.078,0.034-0.127,0.086-0.146,0.154c0.038,0.068,0.058,0.13,0.052,0.186
				c-0.004,0.055-0.043,0.096-0.118,0.122c-0.078,0.028-0.166,0.057-0.268,0.084c-0.099,0.026-0.187,0.059-0.265,0.093
				c-0.077,0.034-0.118,0.079-0.122,0.134s0.074,0.117,0.234,0.186c0.002-0.027-0.047,0.071-0.146,0.299
				c-0.1,0.227-0.334,0.497-0.702,0.812c0.039,0.069,0.075,0.192,0.106,0.372c-0.132,0.149-0.25,0.432-0.355,0.843
				c-0.032,0.016-0.311,0.021-0.836,0.021c-0.061,0-0.139-0.018-0.232-0.051c-0.096-0.034-0.185-0.094-0.269-0.175
				c-0.085-0.084-0.155-0.187-0.212-0.311c-0.06-0.122-0.081-0.273-0.066-0.453c0.003-0.041,0.03-0.096,0.081-0.163l0.077-0.145
				c0.073-0.33,0.2-0.832,0.388-1.504c0.002-0.015,0.055-0.12,0.16-0.318c0.104-0.2,0.219-0.413,0.343-0.64
				c0.12-0.227,0.24-0.433,0.358-0.616c0.12-0.188,0.192-0.278,0.225-0.278c0.028,0,0.071,0.014,0.13,0.041
				c0.058,0.028,0.102,0.041,0.132,0.041c0.014,0,0.033-0.01,0.059-0.031c0.022-0.02,0.062-0.079,0.113-0.176
				c0.053-0.095,0.127-0.242,0.223-0.441c0.098-0.199,0.228-0.478,0.388-0.834c0.083-0.109,0.177-0.268,0.28-0.475
				c0.104-0.205,0.209-0.414,0.313-0.627c0.104-0.213,0.196-0.406,0.274-0.577c0.081-0.172,0.137-0.285,0.171-0.34l0.596-1.482
				c0.062-0.026,0.142-0.059,0.24-0.093c0.098-0.035,0.208-0.085,0.332-0.154l0.009-0.123c-0.043-0.014-0.142-0.083-0.296-0.206
				c0.08-0.067,0.15-0.168,0.22-0.299c0.068-0.13,0.11-0.299,0.125-0.505c0.006-0.082-0.011-0.15-0.05-0.205h-0.154
				c-0.663,0.576-1.211,1.014-1.646,1.308c-0.436,0.295-0.8,0.508-1.09,0.639c-0.292,0.131-0.528,0.206-0.716,0.227
				c-0.187,0.021-0.362,0.053-0.528,0.094c-0.193-0.165-0.405-0.36-0.632-0.587c-0.225-0.228-0.431-0.459-0.617-0.7
				c-0.188-0.24-0.343-0.483-0.461-0.73c-0.12-0.247-0.172-0.479-0.152-0.7c0.002-0.027,0.028-0.06,0.073-0.093
				c0.048-0.034,0.071-0.064,0.073-0.093c0.041-0.137,0.073-0.271,0.101-0.401c0.026-0.13,0.042-0.258,0.052-0.382
				c0.006-0.066,0.011-0.126,0.015-0.175c0.005-0.047,0.003-0.105-0.007-0.175c0.075-0.027,0.215-0.124,0.421-0.288
				c-0.014-0.041-0.014-0.116-0.005-0.228c0.01-0.124,0.135-0.333,0.371-0.628c0.235-0.295,0.506-0.621,0.813-0.978
				c0.015-0.015,0.079-0.086,0.192-0.217c0.112-0.13,0.254-0.274,0.429-0.434c0.172-0.157,0.372-0.302,0.604-0.433
				c0.229-0.13,0.466-0.194,0.715-0.194c0.189,0,0.36,0.1,0.515,0.297c0.153,0.2,0.223,0.396,0.209,0.589
				c-0.009,0.095-0.061,0.204-0.156,0.328c-0.098,0.123-0.21,0.248-0.336,0.37c-0.127,0.125-0.245,0.241-0.355,0.352
				c-0.11,0.109-0.19,0.191-0.238,0.247c-0.018,0.232-0.171,0.587-0.456,1.062c-0.286,0.474-0.562,0.998-0.827,1.574
				c-0.021,0.069-0.072,0.162-0.154,0.278c-0.083,0.116-0.128,0.229-0.137,0.34c-0.019,0.232,0.045,0.35,0.192,0.35
				c0.179,0,0.411-0.075,0.702-0.227c0.294-0.151,0.587-0.319,0.88-0.504c0.294-0.187,0.554-0.361,0.778-0.525
				c0.227-0.165,0.362-0.261,0.408-0.288l0.053-0.104c0.036-0.097,0.112-0.187,0.229-0.269s0.261-0.186,0.43-0.309l0.236-0.206
				c0.062-0.055,0.123-0.083,0.182-0.083c0.014,0,0.025,0.005,0.033,0.011c0.007,0.007,0.017,0.011,0.03,0.011
				c0.022-0.083,0.089-0.195,0.2-0.34c0.114-0.145,0.233-0.292,0.363-0.442c0.126-0.15,0.247-0.285,0.357-0.401
				s0.174-0.188,0.188-0.216c0.179-0.22,0.294-0.429,0.352-0.628c0.06-0.199,0.121-0.374,0.19-0.524
				c0.068-0.151,0.175-0.271,0.32-0.36c0.145-0.09,0.392-0.134,0.742-0.134c0.046,0,0.082,0.003,0.108,0.01
				c0.029,0.008,0.059,0.011,0.088,0.011c0.028,0,0.049,0.007,0.062,0.021c0.058,0.027,0.152,0.068,0.29,0.123
				c0.135,0.057,0.322,0.139,0.562,0.247l-0.011,0.165C271.255,89.583,271.22,89.652,271.156,89.749z"/>
			<path fill="#FFFFFF" d="M294.794,81.098l0.411-0.122l-0.02,0.236l-0.496,0.563l-0.228,0.336l-0.691,0.693l-0.261,0.332
				l-4.971,4.895l-0.198,0.29l-0.613,0.652l-0.233,0.179l-0.338,0.402l-0.016,0.077l-0.124,0.062l-0.219,0.231l-0.403,0.448
				l-0.025,0.13l-0.744,1.939l-0.153,0.19l-0.578,1.675l-0.021,0.235l-0.489,1.233l-0.119,0.144l-0.092,0.308l-0.187,0.345
				l-0.252,0.362l-0.01,0.187l-0.155,0.188l-0.349,0.162l-1.022-0.046l-0.619-0.306l-0.186-0.721l0.001-0.802l0.385-1.783
				l0.384-1.251l0.37-0.798l0.788-1.829l0.229-0.687l-0.948-1.771l-0.398-1.156l-0.357-0.827l-0.094-0.735l0.139-1.18l0.301-0.354
				l0.612-0.39l0.216,0.166l0.081,0.147l0.2-0.156l0.553,0.296l0.28,0.39l0.673,1.196l0.328,0.717l0.578,1.529l0.167,0.692
				l0.435-0.337l0.597-0.71l0.692-0.641l0.095-0.04l0.252-0.281l1.843-1.506l2.106-1.623l0.863-0.562l0.912-0.553l0.497-0.138
				l0.343-0.188L294.794,81.098z"/>
			<path fill="#FFFFFF" d="M297.52,91.313c-0.011,0.672-0.183,1.304-0.516,1.895c-0.097,0.398-0.238,0.751-0.428,1.061
				s-0.462,0.601-0.812,0.875c-0.354,0.273-0.803,0.56-1.348,0.854c-0.549,0.296-1.228,0.634-2.035,1.02
				c-0.03,0.014-0.239,0.041-0.626,0.082c-0.426,0.453-1.025,0.681-1.799,0.681c-0.37,0-0.606-0.035-0.708-0.104l-0.804-0.638
				h-0.065c-0.225,0-0.396-0.072-0.517-0.217c-0.119-0.145-0.204-0.302-0.25-0.474c-0.047-0.172-0.076-0.336-0.095-0.493
				c-0.016-0.157-0.039-0.258-0.065-0.299c0.076-0.109,0.116-0.191,0.118-0.248c0.001-0.041-0.02-0.088-0.062-0.144
				c-0.043-0.055-0.063-0.096-0.062-0.124c0.005-0.123,0.033-0.312,0.087-0.566c0.053-0.253,0.081-0.441,0.086-0.564
				c0.06-0.015,0.167-0.055,0.324-0.124c0.157-0.068,0.237-0.171,0.242-0.31c0.001-0.041-0.014-0.131-0.047-0.268
				c-0.032-0.138-0.048-0.22-0.047-0.247c0.151-0.109,0.269-0.213,0.353-0.31s0.173-0.206,0.264-0.329
				c0.095-0.124,0.196-0.274,0.312-0.453c0.116-0.178,0.273-0.412,0.476-0.7c0.061-0.082,0.185-0.22,0.373-0.412
				c0.19-0.19,0.408-0.404,0.656-0.638c0.249-0.233,0.512-0.479,0.788-0.73c0.277-0.254,0.539-0.484,0.787-0.689
				c0.245-0.206,0.46-0.374,0.646-0.505c0.186-0.131,0.3-0.194,0.344-0.194s0.105,0.009,0.186,0.029
				c0.08,0.02,0.143,0.03,0.186,0.03c0.118,0,0.317-0.19,0.604-0.576c0.03,0.015,0.085,0.049,0.163,0.104
				c0.078,0.056,0.175,0.131,0.289,0.227l0.653,0.145c0.172,0.084,0.433,0.187,0.78,0.31c0.363,0,0.65,0.095,0.859,0.277
				c0.207,0.187,0.364,0.427,0.47,0.721c0.104,0.296,0.173,0.625,0.201,0.989C297.513,90.617,297.525,90.97,297.52,91.313z
				 M295.067,90.82c-0.073-0.016-0.151-0.063-0.238-0.146c0.047-0.068,0.067-0.146,0.069-0.228c0.003-0.124-0.033-0.265-0.11-0.422
				c-0.077-0.158-0.175-0.237-0.292-0.237c-0.203,0-0.671,0.296-1.403,0.887c-0.449,0.356-0.835,0.687-1.157,0.987
				c-0.322,0.303-0.609,0.587-0.86,0.854c-0.251,0.268-0.477,0.522-0.675,0.763c-0.195,0.239-0.403,0.479-0.616,0.711
				c-0.016,0.015-0.053,0.082-0.105,0.206c-0.056,0.123-0.115,0.257-0.177,0.4c-0.065,0.146-0.117,0.281-0.158,0.412
				s-0.062,0.216-0.062,0.257c-0.004,0.11,0.059,0.23,0.188,0.36c0.128,0.131,0.251,0.196,0.369,0.196
				c0.813,0,1.747-0.322,2.799-0.969c0.238-0.055,0.521-0.164,0.849-0.329c0.062-0.056,0.148-0.18,0.264-0.37
				c0.115-0.191,0.266-0.446,0.448-0.764c0.03-0.041,0.065-0.14,0.105-0.298c0.041-0.158,0.089-0.327,0.145-0.505
				s0.112-0.343,0.175-0.494c0.062-0.15,0.117-0.24,0.161-0.268c0.01-0.467,0.104-0.729,0.28-0.783L295.067,90.82z"/>
			<path fill="#FFFFFF" d="M306.474,94.319c0-0.026-0.02,0.005-0.057,0.093c-0.036,0.09-0.091,0.196-0.164,0.319
				c-0.075,0.123-0.167,0.236-0.279,0.34c-0.108,0.103-0.246,0.153-0.409,0.153c-0.251,0-0.643-0.067-1.174-0.206
				c-0.058-0.013-0.124-0.064-0.198-0.153c-0.073-0.09-0.15-0.187-0.23-0.288c-0.08-0.104-0.155-0.195-0.219-0.278
				c-0.067-0.082-0.114-0.123-0.146-0.123c-0.059,0-0.125,0.041-0.199,0.123c-0.717,1.235-1.292,2.031-1.725,2.39
				c-0.014,0-0.099,0.03-0.255,0.093c-0.156,0.062-0.331,0.124-0.526,0.185c-0.191,0.062-0.366,0.121-0.522,0.175
				c-0.156,0.057-0.241,0.084-0.257,0.084c-0.192,0-0.549-0.084-1.063-0.247c-0.057-0.124-0.167-0.269-0.327-0.433
				c-0.161-0.165-0.324-0.331-0.491-0.494c-0.17-0.165-0.313-0.318-0.438-0.464c-0.121-0.144-0.184-0.257-0.183-0.34
				c0.006-0.288,0.016-0.669,0.029-1.144c0.014-0.474,0.146-0.999,0.389-1.574c0.075-0.056,0.146-0.113,0.214-0.177
				c0.065-0.062,0.131-0.144,0.19-0.244c0.062-0.104,0.123-0.238,0.191-0.403c0.068-0.164,0.148-0.377,0.24-0.638
				c0.044-0.027,0.082-0.072,0.11-0.135c0.03-0.062,0.077-0.149,0.138-0.269c0.06-0.116,0.139-0.269,0.236-0.452
				c0.099-0.186,0.242-0.402,0.438-0.649c0-0.04,0.037-0.156,0.111-0.349c0.075-0.193,0.166-0.397,0.271-0.619
				c0.104-0.219,0.217-0.415,0.335-0.587c0.118-0.171,0.214-0.256,0.288-0.256c0.145,0,0.273,0.108,0.389,0.328
				c0.113,0.221,0.172,0.412,0.17,0.576c0,0.056-0.034,0.166-0.102,0.33c-0.068,0.164-0.104,0.273-0.104,0.329
				c0,0.028-0.003,0.093-0.011,0.194c-0.01,0.104-0.021,0.252-0.038,0.443c0.086,0.123,0.136,0.288,0.149,0.494
				c-0.167,0.315-0.393,0.822-0.677,1.522c-0.03,0.015-0.061,0.025-0.09,0.031c-0.027,0.007-0.059,0.023-0.087,0.052
				c0.027,0.082,0.041,0.145,0.041,0.187c-0.001,0.055-0.055,0.185-0.158,0.391c-0.105,0.206-0.22,0.443-0.341,0.711
				c-0.121,0.269-0.234,0.553-0.34,0.854c-0.106,0.303-0.162,0.591-0.166,0.863c0,0.016,0.023,0.038,0.075,0.072
				s0.11,0.065,0.176,0.093c0.065,0.028,0.13,0.056,0.188,0.082c0.058,0.028,0.087,0.049,0.087,0.062h0.133
				c0.061-0.069,0.146-0.131,0.258-0.187c0.111-0.055,0.25-0.124,0.411-0.206c0.208-0.109,0.38-0.223,0.514-0.34
				c0.135-0.116,0.245-0.239,0.335-0.37c0.09-0.13,0.168-0.264,0.236-0.401c0.067-0.138,0.137-0.28,0.212-0.433l1.587-3.438
				c0.044,0,0.104-0.011,0.186-0.031c0.082-0.021,0.146-0.031,0.188-0.031c0.029,0,0.084,0.031,0.164,0.094
				c0.08,0.062,0.175,0.127,0.284,0.194c0.11,0.069,0.216,0.135,0.318,0.195c0.103,0.062,0.176,0.093,0.219,0.093
				c0.088,0,0.146-0.013,0.177-0.041c0.029,0.015,0.057,0.06,0.088,0.134c0.028,0.076,0.059,0.158,0.086,0.247
				c0.03,0.09,0.057,0.172,0.077,0.247c0.021,0.076,0.032,0.134,0.032,0.175c0,0.124-0.067,0.528-0.199,1.217l-0.225,1.174
				c-0.001,0.219,0.115,0.329,0.353,0.329c0-0.015,0.325-0.124,0.973-0.329C306.437,93.936,306.474,94.155,306.474,94.319z"/>
		</g>
	</g>
</g>
</svg>
